<?xml version="1.0" encoding="utf-8"?>
<!-- Generator: Adobe Illustrator 23.0.1, SVG Export Plug-In . SVG Version: 6.00 Build 0)  -->
<svg version="1.1" id="Layer_1" xmlns="http://www.w3.org/2000/svg" xmlns:xlink="http://www.w3.org/1999/xlink" x="0px" y="0px"
	 viewBox="0 0 595.276 841.89" enable-background="new 0 0 595.276 841.89" xml:space="preserve">
<g>
	<g>
		<path fill="#363578" d="M228.979,284.99c0.111,0.033,0.225,0.05,0.34,0.05c0.115,0,0.229-0.017,0.34-0.05l22.355-6.711
			l-4.212,22.568c-0.372,1.993-2.332,3.439-4.66,3.439h-27.645c-2.328,0-4.288-1.446-4.66-3.439l-4.212-22.568L228.979,284.99
			L228.979,284.99z M203.916,263.767c8.554,1.74,17.15,2.551,25.378,2.551c8.323,0,17.167-0.871,25.428-2.551l-2.22,11.897
			l-23.183,6.959l-23.182-6.959L203.916,263.767L203.916,263.767z M211.367,251.012l0.73,11.747
			c-2.481-0.342-3.323-0.507-3.717-0.574l-0.684-10.99L211.367,251.012L211.367,251.012z M217.93,245.69h3.677V263.7
			c-1.227-0.075-2.453-0.169-3.677-0.28V245.69L217.93,245.69z M227.386,251.085h3.677v12.837c-1.226,0.017-2.451,0.017-3.677-0.002
			V251.085L227.386,251.085z M238.516,247.107l3.673,0.143l-0.786,16.106c-1.23,0.118-2.461,0.218-3.695,0.3L238.516,247.107
			L238.516,247.107z M249.095,250.982l3.656,0.327l-1.196,10.648c-2.31,0.416-1.941,0.347-3.762,0.617L249.095,250.982
			L249.095,250.982z M215.497,306.65h27.645c3.466,0,6.403-2.258,6.984-5.369l7.244-38.818c0.073-0.389-0.054-0.79-0.339-1.065
			c-0.284-0.276-0.689-0.39-1.075-0.307c-0.654,0.143-1.313,0.27-1.97,0.402l1.249-11.122c0.074-0.659-0.41-1.25-1.069-1.309
			l-6.011-0.538c-0.639-0.055-1.209,0.407-1.28,1.045l-1.498,13.344c-0.53,0.068-1.062,0.13-1.593,0.192l0.825-16.932
			c0.032-0.656-0.478-1.213-1.135-1.238l-6.035-0.235c-0.652-0.028-1.195,0.476-1.227,1.123l-0.877,17.972
			c-0.636,0.03-1.272,0.056-1.909,0.076v-13.967c0-0.652-0.529-1.182-1.182-1.182h-6.041c-0.653,0-1.182,0.53-1.182,1.182v13.96
			c-0.351-0.012-0.701-0.027-1.051-0.042v-19.313c0-0.653-0.529-1.182-1.182-1.182h-6.041c-0.653,0-1.182,0.529-1.182,1.182v18.682
			c-0.361-0.04-0.721-0.087-1.081-0.13l-0.831-13.359c-0.04-0.646-0.593-1.144-1.238-1.107l-6.032,0.299
			c-0.658,0.032-1.162,0.597-1.121,1.254l0.723,11.617c-1.105-0.209-2.206-0.433-3.303-0.673c-0.387-0.084-0.791,0.031-1.075,0.307
			c-0.284,0.276-0.412,0.676-0.339,1.065l7.244,38.818C209.093,304.392,212.031,306.65,215.497,306.65L215.497,306.65z"/>
		<path fill="#363578" d="M279.388,281.837h-14.126v-22.564h14.126V281.837L279.388,281.837z M274.276,234.143h-15.78v-5.455
			c0-3.178,2.498-5.777,5.632-5.955c1.252-0.052,3.996,0.002,4.559,0.002c3.114,0.2,5.589,2.79,5.589,5.953V234.143L274.276,234.143
			z M265.779,206.714h1.216l0.475,13.638h-2.165L265.779,206.714L265.779,206.714z M276.64,234.354v-5.666
			c0-4.072-2.936-7.465-6.8-8.189l-0.523-15.009c-0.022-0.636-0.544-1.141-1.182-1.141h-3.499c-0.637,0-1.16,0.504-1.181,1.141
			l-0.523,15.009c-3.864,0.723-6.8,4.117-6.8,8.189v5.666c-2.931,0.737-5.111,3.387-5.111,6.544v3.425
			c0,0.653,0.529,1.182,1.182,1.182s1.182-0.529,1.182-1.182v-3.425c0-2.421,1.97-4.39,4.39-4.39h17.222c2.42,0,4.39,1.97,4.39,4.39
			v16.011h-15.308c-0.653,0-1.182,0.529-1.182,1.182v24.928c0,0.652,0.529,1.182,1.182,1.182h15.308v16.667
			c0,1.783-1.451,3.234-3.234,3.234H254.18c-0.653,0-1.182,0.529-1.182,1.182s0.529,1.182,1.182,1.182h21.974
			c3.087,0,5.598-2.511,5.598-5.598v-59.97C281.752,237.741,279.572,235.091,276.64,234.354L276.64,234.354z"/>
	</g>
	<rect x="123" y="312" fill="none" width="237" height="49"/>
	<text transform="matrix(1 0 0 1 123 337.5596)"><tspan x="0" y="0" font-family="'MyriadPro-Regular'" font-size="36px">Awesome</tspan><tspan x="148.643" y="0" font-family="'MyriadPro-Regular'" font-size="36px">-</tspan></text>
</g>
</svg>
